<svg id="Layer_1" data-name="Layer 1" xmlns="http://www.w3.org/2000/svg" width="136.86" height="33.88" viewBox="0 0 136.86 33.88"><title>scrimmd</title><path d="M25.57,6.61a4.29,4.29,0,0,1,.2-1.22C24.43,5.51,19.15,7.1,19.15,9c0,.12,0,.2.12.2,4,0,11.91,3.94,11.91,8.5,0,7.85-19.55,16.22-26.3,16.22C2.48,33.88,0,32.79,0,30c0-6,15.81-14,20.93-14,1.5,0,2.44,1.63,2.44,3,0,.53-.28.65-.77.65-3.42,0-19.06,7.11-19.06,10.61C3.54,31,4,31.4,4.8,31.4a18,18,0,0,0,6.91-2c2.44-1.1,16.14-9,16.14-11.75s-8.54-5.2-10.73-5.2a25.51,25.51,0,0,1-1.83-3.9c0-.69.93-1.79,1.34-2.28A17.92,17.92,0,0,1,29.51.51a7.13,7.13,0,0,1,.93,0A3.86,3.86,0,0,1,31.83.19c1.3,0,1.34,2,1.34,2.93S27.52,6,27.52,8.48a.37.37,0,0,1-.33.41C26.3,8.88,25.57,7.34,25.57,6.61Z" fill="#fff"/><path d="M43,16.89c-4.63,0-10.37,6.71-10.37,11.42,0,1.91,8.58-3.25,14.31-9.63.33-.37,1.71,1.06.89,2C47.35,21.32,37.8,31,32.27,31a3.82,3.82,0,0,1-2.8-3.5c0-7.6,10.12-16.34,13.25-16.34C46.62,11.12,43.77,16.89,43,16.89Z" fill="#fff"/><path d="M62.1,20.67C61.33,21.45,53.73,31,52.27,31c-1.75,0-3.37-2.52-3.37-3.41,0-1.91,7.6-13.13,7.6-14.35-.77.2-2.2.65-3.46.89-1.58,2.19-4.19,5.49-5.2,6.58s-1.67-1.14-.89-2a39.59,39.59,0,0,0,3.17-4.11,6.61,6.61,0,0,1-.85,0c-.77,0-2.32-2.76-1.18-2.76,1.79,0,9.76-3.78,10.29-3.78,1.18,0,3.29,3.13,3.29,4.59s-9.31,13.13-9.31,15.61c.28,0,7.56-8.21,8.82-9.59C61.53,18.27,62.88,19.82,62.1,20.67Z" fill="#fff"/><path d="M68.08,18.68c.32-.37,1.67,1.1.89,2-.61.73-8.5,9.55-8.62,9.67s-.24.16-.65.16-2.4-.69-2.4-3.74c0-6.26,8-15.2,8.58-15.2,1.18,0,2.6,2,2.6,3s-8.58,8.37-8.58,13.9C59.91,28.6,63.69,23.52,68.08,18.68ZM73.73,6.89c0,.69-3,4.19-3.9,4.19s-2.24-1-2.24-1.63C67.59,8.15,70.15,4,71,4S73.73,6.2,73.73,6.89Z" fill="#fff"/><path d="M88,15.41c-.41,0-10.26,8.27-10.26,10.35,0,.2-.2.49-.81.49s-1.3-.89-1.3-3c0-1.91,3-5.89,4.51-8.62-.57,0-11.58,10-11.58,11.63,0,.2-.2.49-.81.49s-1.3-.89-1.3-3c0-3.62,5.53-12.48,7.56-12.48,1.46,0,2.48.45,2.48,1.14S73.24,15.88,73.24,17c0,.12.08.45.24.28s9.35-8.5,9.88-8.5c1.18,0,2.72,2.15,2.72,3.13,0,.41-3.62,3.46-3.62,4.67,0,.12,0,.16.12.16.61,0,9.76-7.68,10.29-7.68.7,0,1.52.76,2.07,1.59l.36.63" fill="#fff"/><path d="M113.25,20.59c-1.1,1.22-9.19,11.1-10.45,11.1a2.67,2.67,0,0,1-2.2-2.85c0-6.26,5.16-13.17,4.76-13.17s-9.8,8-9.8,10.08c0,.2-.2.49-.81.49s-1.3-.89-1.3-3c0-1.91,3-5.89,4.51-8.62-.57,0-11.59,10-11.59,11.63,0,.2-.2.49-.81.49s-1.3-.89-1.3-3c0-3.62,5.53-12.48,7.56-12.48,1.46,0,3.25-.84,3.47,0,.18.67-4.2,4.57-4.2,5.7,0,.12.08.45.24.28s9.35-8.5,9.88-8.5c1.18,0,2.72,2.15,2.72,3.13,0,.41-3.62,3.46-3.62,4.67,0,.12,0,.16.12.16.61,0,9.76-7.68,10.28-7.68,1.18,0,2.68,2.15,2.68,3.13,0,1.87-10,11.91-10,16.54,0,1.1,8-9.35,8.9-10.16C112.89,18.07,113.9,19.9,113.25,20.59Z" fill="#fff"/><path d="M136.86,3.09c0,.69-17.56,18.29-17.56,27.28,0,.08,0,.12,0,.16.73,0,9.47-10.2,11.06-12,.37-.41,1.63,1.14.89,2-1.3,1.54-10.2,12-11.63,12-.57,0-3.54-.41-3.54-2.44a13.73,13.73,0,0,1,.57-3.74c-1.75,1.26-3.66,2.36-4.8,2.36a2.56,2.56,0,0,1-2.24-2.8c0-7.6,9-13.62,10.85-13.62,1.58,0,2.11,1.22,2.11,2.85C127.34,6.71,133.08,0,134.34,0,135.8,0,136.86,2.4,136.86,3.09ZM118.24,22.28a42.91,42.91,0,0,1,2.32-4.19c.24-.65.33-1.1.08-1.1-2.07,0-8,8.82-7,8.82S116.73,23.9,118.24,22.28Z" fill="#fff"/></svg>